<svg id="Capa_1" data-name="Capa 1" xmlns="http://www.w3.org/2000/svg" viewBox="0 0 250 88"><defs><style>.cls-1{fill:#0f1016;}.cls-2{fill:#d59e62;}</style></defs><path class="cls-1" d="M66.66,2.46c3,.42,4.87,1,5.71,1.59a.87.87,0,0,1,.48.68q0,.58-1.53,1.11A3.23,3.23,0,0,1,70.26,6l-.53,0A17.37,17.37,0,0,1,68,5.68,36.9,36.9,0,0,0,61.27,5q-1.7-.06-3.33-.06c-1.83,0-3.65.06-5.44.16l-4,.27-.69,1.85c-.21.6-.75,1.86-1.61,3.78s-1.84,4.08-2.94,6.47Q29.23,47.56,23.37,70a49,49,0,0,1-1.51,5.31,3.14,3.14,0,0,1-1.51,2,7.35,7.35,0,0,1-2.69.37h-.9a6.73,6.73,0,0,1-2.43-.31,3.3,3.3,0,0,1-1.27-.8,2.27,2.27,0,0,1-.21-1.11c0-.17,0-.52.05-1s.21-1.64.53-3.41q3.06-17.7,13.27-40.33.94-2.07,1.32-3.18a4.86,4.86,0,0,0,.21-1.32,3.87,3.87,0,0,0-.13-.87,8.74,8.74,0,0,0-.77-1.77,10,10,0,0,0-2.11-2.7,11.53,11.53,0,0,0-3-2,65.77,65.77,0,0,0-6.39-2.24Q10.73,14.93,5,13.24q-3.7-1.05-3.7-2.37c0-.6.56-1.26,1.69-2q3.86-2.6,19.56-4.76Q34.27,2.56,47,2q4.38-.17,8.09-.16A93.79,93.79,0,0,1,66.66,2.46ZM38.33,8.38l1.53-2.59L38.7,6l-1.43.16-1.85.21q-4.76.42-10.31,1.32t-9.3,1.74c-2.15.5-3.23.87-3.23,1.12a.14.14,0,0,0,.06.1c.17.07.95.33,2.32.77s3,1,4.92,1.61q9.68,3.12,11.63,4.86c.24.21.46.38.63.51a1.09,1.09,0,0,0,.32.18,5.66,5.66,0,0,0,.74-1.11c.42-.7.92-1.6,1.48-2.7s1.24-2.23,1.93-3.43S37.87,9.12,38.33,8.38Z"/><path class="cls-1" d="M46.31,51.73a7.57,7.57,0,0,0-.4,1.48,15.27,15.27,0,0,0-.23,2,10.9,10.9,0,0,0-.06,1.11,6.52,6.52,0,0,0,.27,1.93,3.59,3.59,0,0,0,1.16,1.66,1.55,1.55,0,0,0,.53.37h.16a2.52,2.52,0,0,0,.58-.08c.25-.05.69-.16,1.32-.34a14.53,14.53,0,0,0,1.93-.77c.72-.33,1.37-.66,1.93-1s1.14-.73,1.82-1.14l1.83-1.08a7.74,7.74,0,0,1,4-1.27,5.31,5.31,0,0,1,1.64.26c.71.18,1.06.48,1.06.9s-.37,1-1.11,1.64A23.61,23.61,0,0,1,58,60.74,24.46,24.46,0,0,1,52.5,63a18.77,18.77,0,0,1-10.21-.16,7.9,7.9,0,0,1-4.91-4.7A9.48,9.48,0,0,1,37,55.54a17.56,17.56,0,0,1,.18-2.12,14.4,14.4,0,0,1,.93-3.28,31.6,31.6,0,0,1,6.42-10A22.15,22.15,0,0,1,53.24,34,15.92,15.92,0,0,1,58,33.33a10.54,10.54,0,0,1,4.18.64,4.49,4.49,0,0,1,2,1.69A5,5,0,0,1,64.6,38v.31A7.88,7.88,0,0,1,63.76,42,13.23,13.23,0,0,1,61,45.41a19.18,19.18,0,0,1-3.88,2.88,20.8,20.8,0,0,1-4.28,1.56,20.71,20.71,0,0,1-4.44.72H48a5.27,5.27,0,0,0-.74,0,.78.78,0,0,0-.5.29A3,3,0,0,0,46.31,51.73Zm2.8-5.87-.79,1.27h.74A3.33,3.33,0,0,0,50,47c.39-.13.77-.28,1.16-.45a14.12,14.12,0,0,0,5.24-4.18,7.14,7.14,0,0,0,1.74-4.23,4.46,4.46,0,0,0-.05-.63c0-.36-.11-.57-.21-.64a.21.21,0,0,0-.11,0,1,1,0,0,0-.48.21,18.5,18.5,0,0,0-4.12,3.6A33,33,0,0,0,49.11,45.86Z"/><path class="cls-1" d="M69.31,61.09a2.52,2.52,0,0,1-1.67-1,4.86,4.86,0,0,1-.39-2.27v-.69q0-5.55,4.54-16a59.24,59.24,0,0,1,2.64-5.55,6.51,6.51,0,0,1,2.07-2.44A5.06,5.06,0,0,1,79,32.59c2,0,3.18.34,3.49,1v.1A7.49,7.49,0,0,1,82.26,35c-.18.74-.43,1.64-.77,2.7s-.69,2.1-1.08,3.12v.1s.1,0,.21-.16a11.74,11.74,0,0,0,.85-1q4.13-5.28,8.82-6.4a9.69,9.69,0,0,1,2.59-.42,8,8,0,0,1,2.54.48,3.17,3.17,0,0,1,2.28,1.5,9.22,9.22,0,0,1,.52,3.68V39c0,.88,0,1.69.11,2.41a5.16,5.16,0,0,0,.26,1.4,1,1,0,0,1,.16.53c0,.67-.86,1.07-2.59,1.21a7,7,0,0,1-.9.06,3.62,3.62,0,0,1-2.53-.74c-.67-.6-1.11-1.82-1.33-3.65a15.59,15.59,0,0,0-.34-1.75c-.12-.45-.2-.68-.24-.68s-.53.33-1.19,1-1.37,1.45-2.16,2.35-1.48,1.72-2,2.46c-.42.57-1.15,1.67-2.19,3.31s-2.14,3.42-3.31,5.36-2.2,3.58-3.12,5a27.83,27.83,0,0,1-1.74,2.59A4.11,4.11,0,0,1,73,61.14a9.49,9.49,0,0,1-1.72.21A7.93,7.93,0,0,1,69.31,61.09Zm0,0a2.52,2.52,0,0,1-1.67-1,4.86,4.86,0,0,1-.39-2.27v-.69q0-5.55,4.54-16a59.24,59.24,0,0,1,2.64-5.55,6.51,6.51,0,0,1,2.07-2.44A5.06,5.06,0,0,1,79,32.59c2,0,3.18.34,3.49,1v.1A7.49,7.49,0,0,1,82.26,35c-.18.74-.43,1.64-.77,2.7s-.69,2.1-1.08,3.12v.1s.1,0,.21-.16a11.74,11.74,0,0,0,.85-1q4.13-5.28,8.82-6.4a9.69,9.69,0,0,1,2.59-.42,8,8,0,0,1,2.54.48,3.17,3.17,0,0,1,2.28,1.5,9.22,9.22,0,0,1,.52,3.68V39c0,.88,0,1.69.11,2.41a5.16,5.16,0,0,0,.26,1.4,1,1,0,0,1,.16.53c0,.67-.86,1.07-2.59,1.21a7,7,0,0,1-.9.06,3.62,3.62,0,0,1-2.53-.74c-.67-.6-1.11-1.82-1.33-3.65a15.59,15.59,0,0,0-.34-1.75c-.12-.45-.2-.68-.24-.68s-.53.33-1.19,1-1.37,1.45-2.16,2.35-1.48,1.72-2,2.46c-.42.57-1.15,1.67-2.19,3.31s-2.14,3.42-3.31,5.36-2.2,3.58-3.12,5a27.83,27.83,0,0,1-1.74,2.59A4.11,4.11,0,0,1,73,61.14a9.49,9.49,0,0,1-1.72.21A7.93,7.93,0,0,1,69.31,61.09Z"/><path class="cls-1" d="M100.81,61.09a2.5,2.5,0,0,1-1.66-1,4.83,4.83,0,0,1-.4-2.27v-.69q0-5.55,4.55-16a59.24,59.24,0,0,1,2.64-5.55A6.5,6.5,0,0,1,108,33.17a5.1,5.1,0,0,1,2.54-.58c2,0,3.17.34,3.49,1v.1a7.49,7.49,0,0,1-.26,1.27c-.18.74-.44,1.64-.77,2.7s-.7,2.1-1.08,3.12v.1s.1,0,.21-.16a10.34,10.34,0,0,0,.84-1q4.13-5.28,8.83-6.4a9.69,9.69,0,0,1,2.59-.42,8.09,8.09,0,0,1,2.54.48,3.15,3.15,0,0,1,2.27,1.5,9,9,0,0,1,.53,3.68V39c0,.88,0,1.69.11,2.41a5.16,5.16,0,0,0,.26,1.4,1,1,0,0,1,.16.53c0,.67-.86,1.07-2.59,1.21a7.28,7.28,0,0,1-.9.06,3.67,3.67,0,0,1-2.54-.74c-.67-.6-1.11-1.82-1.32-3.65a15.59,15.59,0,0,0-.34-1.75c-.13-.45-.2-.68-.24-.68s-.54.33-1.19,1-1.37,1.45-2.17,2.35-1.47,1.72-2,2.46c-.42.57-1.16,1.67-2.2,3.31s-2.14,3.42-3.3,5.36-2.2,3.58-3.12,5-1.5,2.31-1.74,2.59a4.11,4.11,0,0,1-2.09,1.22,9.59,9.59,0,0,1-1.72.21A8,8,0,0,1,100.81,61.09Zm0,0a2.5,2.5,0,0,1-1.66-1,4.83,4.83,0,0,1-.4-2.27v-.69q0-5.55,4.55-16a59.24,59.24,0,0,1,2.64-5.55A6.5,6.5,0,0,1,108,33.17a5.1,5.1,0,0,1,2.54-.58c2,0,3.17.34,3.49,1v.1a7.49,7.49,0,0,1-.26,1.27c-.18.74-.44,1.64-.77,2.7s-.7,2.1-1.08,3.12v.1s.1,0,.21-.16a10.34,10.34,0,0,0,.84-1q4.13-5.28,8.83-6.4a9.69,9.69,0,0,1,2.59-.42,8.09,8.09,0,0,1,2.54.48,3.15,3.15,0,0,1,2.27,1.5,9,9,0,0,1,.53,3.68V39c0,.88,0,1.69.11,2.41a5.16,5.16,0,0,0,.26,1.4,1,1,0,0,1,.16.53c0,.67-.86,1.07-2.59,1.21a7.28,7.28,0,0,1-.9.06,3.67,3.67,0,0,1-2.54-.74c-.67-.6-1.11-1.82-1.32-3.65a15.59,15.59,0,0,0-.34-1.75c-.13-.45-.2-.68-.24-.68s-.54.33-1.19,1-1.37,1.45-2.17,2.35-1.47,1.72-2,2.46c-.42.57-1.16,1.67-2.2,3.31s-2.14,3.42-3.3,5.36-2.2,3.58-3.12,5-1.5,2.31-1.74,2.59a4.11,4.11,0,0,1-2.09,1.22,9.59,9.59,0,0,1-1.72.21A8,8,0,0,1,100.81,61.09Z"/><path class="cls-1" d="M170.7,42.48q-2.05,4.07-4.07,8.75A54.76,54.76,0,0,0,164,58.34a11.59,11.59,0,0,0-.42,2.8,3.11,3.11,0,0,0,.58,2.06l.63.79-.63.69a5.27,5.27,0,0,1-2.54,1.16A8.51,8.51,0,0,1,160,66a7.8,7.8,0,0,1-1.59-.16,5.09,5.09,0,0,1-3.17-2.11,4.13,4.13,0,0,1-.37-1.45c-.07-.66-.1-1.65-.1-3l0-3.49-.85.63-1.34,1-2.09,1.61a27.07,27.07,0,0,1-10,5.07,5.68,5.68,0,0,1-1.33.16h-.58a9.82,9.82,0,0,1-4.52-1.13,7.25,7.25,0,0,1-3.3-3.68,9.4,9.4,0,0,1-.53-3.07,15,15,0,0,1,.37-2.82,19.56,19.56,0,0,1,1.43-4.15,27.65,27.65,0,0,1,6-8.83,35.28,35.28,0,0,1,3.15-2.94,14,14,0,0,1,2.67-1.61,15.67,15.67,0,0,1,4.44-1.64,17.5,17.5,0,0,1,3.17-.26c.6,0,1.24,0,1.91,0,3.8.18,6.66.9,8.56,2.17l1.06.74,1.21-.85a7,7,0,0,1,1-.5,4.05,4.05,0,0,1,1.14-.24c.45,0,1.11,0,1.95,0q4.4,0,4.71,1.64v0a7.21,7.21,0,0,1-.58,1.69C172.06,39.8,171.48,41,170.7,42.48Zm-13.9,2.59,1.85-1.9-.79-1.38c-1.17-2.18-2.56-3.28-4.18-3.28s-3.63,1.24-5.82,3.7A33.49,33.49,0,0,0,142.6,50a17.69,17.69,0,0,0-2,7.45v.11a1.9,1.9,0,0,0,.16,1,.2.2,0,0,0,.16.06,2.34,2.34,0,0,0,1-.45c.46-.3,1.32-.93,2.59-1.88a2,2,0,0,0,.26-.21c1.55-1.17,3.51-2.83,5.87-5S155,46.94,156.8,45.07Z"/><path class="cls-1" d="M176.09,69a7.83,7.83,0,0,1-3.67-2.35,7.23,7.23,0,0,1-1-4.2A31.54,31.54,0,0,1,173.13,53a225.72,225.72,0,0,1,10.13-24.77q6.42-13.6,10.33-18.48l1.32-1.48h3.71a3.73,3.73,0,0,1,1.69.27.69.69,0,0,1,.26.63,4.31,4.31,0,0,1-.37,1.48c-.42,1.13-1.29,3-2.59,5.66-.18.32-.35.65-.53,1q-16.23,33.63-17.76,45.26a9.21,9.21,0,0,0-.11,1.27c0,.7.18,1,.53,1s1-.44,1.8-1.32c1.13-1.13,2.69-2.91,4.68-5.36s4.13-5.23,6.42-8.33a31.12,31.12,0,0,1,3.68-4.49,3.82,3.82,0,0,1,2.61-1.06,2.66,2.66,0,0,1,1.56.5c.48.34.72.68.72,1a11.57,11.57,0,0,1-1.83,3.25c-1.21,1.82-2.69,3.88-4.41,6.19s-3.4,4.46-5,6.45a36.37,36.37,0,0,1-3.78,4.2,11.82,11.82,0,0,1-3.36,2.33,10.24,10.24,0,0,1-3.77.74h-1.91A5.4,5.4,0,0,1,176.09,69Zm0,0a7.83,7.83,0,0,1-3.67-2.35,7.23,7.23,0,0,1-1-4.2A31.54,31.54,0,0,1,173.13,53a225.72,225.72,0,0,1,10.13-24.77q6.42-13.6,10.33-18.48l1.32-1.48h3.71a3.73,3.73,0,0,1,1.69.27.69.69,0,0,1,.26.63,4.31,4.31,0,0,1-.37,1.48c-.42,1.13-1.29,3-2.59,5.66-.18.32-.35.65-.53,1q-16.23,33.63-17.76,45.26a9.21,9.21,0,0,0-.11,1.27c0,.7.18,1,.53,1s1-.44,1.8-1.32c1.13-1.13,2.69-2.91,4.68-5.36s4.13-5.23,6.42-8.33a31.12,31.12,0,0,1,3.68-4.49,3.82,3.82,0,0,1,2.61-1.06,2.66,2.66,0,0,1,1.56.5c.48.34.72.68.72,1a11.57,11.57,0,0,1-1.83,3.25c-1.21,1.82-2.69,3.88-4.41,6.19s-3.4,4.46-5,6.45a36.37,36.37,0,0,1-3.78,4.2,11.82,11.82,0,0,1-3.36,2.33,10.24,10.24,0,0,1-3.77.74h-1.91A5.4,5.4,0,0,1,176.09,69Z"/><path class="cls-1" d="M200.47,51.73a6.37,6.37,0,0,0-.4,1.48,15.3,15.3,0,0,0-.24,2c0,.39-.05.76-.05,1.11a6.88,6.88,0,0,0,.26,1.93,3.69,3.69,0,0,0,1.17,1.66,1.52,1.52,0,0,0,.52.37h.16a2.46,2.46,0,0,0,.58-.08c.25-.05.69-.16,1.33-.34a15.09,15.09,0,0,0,1.93-.77c.72-.33,1.36-.66,1.93-1s1.13-.73,1.82-1.14l1.82-1.08a7.74,7.74,0,0,1,4-1.27,5.36,5.36,0,0,1,1.64.26q1.05.27,1.05.9c0,.42-.37,1-1.11,1.64a23.53,23.53,0,0,1-4.7,3.3,24.53,24.53,0,0,1-5.5,2.25,18.73,18.73,0,0,1-10.2-.16,7.94,7.94,0,0,1-4.92-4.7,9.48,9.48,0,0,1-.37-2.59,16.06,16.06,0,0,1,.19-2.12,14.84,14.84,0,0,1,.92-3.28,31.6,31.6,0,0,1,6.42-10,22.23,22.23,0,0,1,8.7-6.16,16,16,0,0,1,4.76-.64,10.51,10.51,0,0,1,4.17.64,4.49,4.49,0,0,1,2,1.69,4.86,4.86,0,0,1,.48,2.38v.31a7.88,7.88,0,0,1-.85,3.65,13,13,0,0,1-2.72,3.41,19.24,19.24,0,0,1-3.89,2.88A20.8,20.8,0,0,1,207,49.85a20.52,20.52,0,0,1-4.44.72h-.48a5.38,5.38,0,0,0-.74,0,.78.78,0,0,0-.5.29A3.31,3.31,0,0,0,200.47,51.73Zm2.8-5.87-.8,1.27h.74a3.27,3.27,0,0,0,.9-.18q.58-.2,1.17-.45a14.08,14.08,0,0,0,5.23-4.18,7.14,7.14,0,0,0,1.74-4.23,3.35,3.35,0,0,0-.05-.63c0-.36-.1-.57-.21-.64a.18.18,0,0,0-.11,0,1,1,0,0,0-.47.21,18.51,18.51,0,0,0-4.13,3.6A32.32,32.32,0,0,0,203.27,45.86Z"/><path class="cls-1" d="M224.41,63.25a9.91,9.91,0,0,1-3.17-1.48,7.27,7.27,0,0,1-1.35-1.08,3.72,3.72,0,0,1-.92-1.45,9.38,9.38,0,0,1-.21-2c0-.39,0-.8.05-1.22a4.86,4.86,0,0,1,1.32-2.85,3.83,3.83,0,0,1,2.2-1.17c.72-.07,1.2-.1,1.45-.1a3.87,3.87,0,0,1,2.27.63.94.94,0,0,1,.32.27.54.54,0,0,1,0,.21,1,1,0,0,1,0,.26,4.63,4.63,0,0,1-.32.85,4.73,4.73,0,0,0-.47,2.06,4.31,4.31,0,0,0,0,.69,3.5,3.5,0,0,0,1,2.27c.67.6,1.15.9,1.43.9h.48a2.32,2.32,0,0,0,1.53-.85,7.91,7.91,0,0,0,.85-1,4.46,4.46,0,0,0,.58-1.08,8.56,8.56,0,0,0,.21-2.12,47.84,47.84,0,0,0-1.06-8.45,28.63,28.63,0,0,1-.69-5.4v-.26a7.36,7.36,0,0,1,1-3.49Q233.34,33,240.91,33c1,0,1.83,0,2.64-.1a7,7,0,0,0,1.64-.27,4.8,4.8,0,0,1,1.69-.31,5.54,5.54,0,0,1,2.06.42c.71.25,1.06.62,1.06,1.11a2.08,2.08,0,0,1-.53,1.16c-.18.25-.43.67-.77,1.27s-.66,1.23-1,1.9-.7,1.29-1,1.85a9.75,9.75,0,0,1-.77,1.17,3.7,3.7,0,0,1-2.64,1,7.29,7.29,0,0,1-1.17-.11c-.84-.1-1.29-.3-1.34-.58a3,3,0,0,1-.08-.58,6.34,6.34,0,0,1,.68-2.38c.25-.6.46-1.13.64-1.59a6.88,6.88,0,0,0,.26-.74q0-.21-.42-.18a3.82,3.82,0,0,0-1,.21,4.65,4.65,0,0,0-.95.45Q238,38,238,42a28,28,0,0,0,.74,5.81,37.66,37.66,0,0,1,.85,7,10.2,10.2,0,0,1-.59,3.8,8.7,8.7,0,0,1-4.75,4.34,17.15,17.15,0,0,1-5.45.9,17.51,17.51,0,0,1-4.23-.53A.35.35,0,0,0,224.41,63.25Zm0,0a9.91,9.91,0,0,1-3.17-1.48,7.27,7.27,0,0,1-1.35-1.08,3.72,3.72,0,0,1-.92-1.45,9.38,9.38,0,0,1-.21-2c0-.39,0-.8.05-1.22a4.86,4.86,0,0,1,1.32-2.85,3.83,3.83,0,0,1,2.2-1.17c.72-.07,1.2-.1,1.45-.1a3.87,3.87,0,0,1,2.27.63.94.94,0,0,1,.32.27.54.54,0,0,1,0,.21,1,1,0,0,1,0,.26,4.63,4.63,0,0,1-.32.85,4.73,4.73,0,0,0-.47,2.06,4.31,4.31,0,0,0,0,.69,3.5,3.5,0,0,0,1,2.27c.67.6,1.15.9,1.43.9h.48a2.32,2.32,0,0,0,1.53-.85,7.91,7.91,0,0,0,.85-1,4.46,4.46,0,0,0,.58-1.08,8.56,8.56,0,0,0,.21-2.12,47.84,47.84,0,0,0-1.06-8.45,28.63,28.63,0,0,1-.69-5.4v-.26a7.36,7.36,0,0,1,1-3.49Q233.34,33,240.91,33c1,0,1.83,0,2.64-.1a7,7,0,0,0,1.64-.27,4.8,4.8,0,0,1,1.69-.31,5.54,5.54,0,0,1,2.06.42c.71.25,1.06.62,1.06,1.11a2.08,2.08,0,0,1-.53,1.16c-.18.25-.43.67-.77,1.27s-.66,1.23-1,1.9-.7,1.29-1,1.85a9.75,9.75,0,0,1-.77,1.17,3.7,3.7,0,0,1-2.64,1,7.29,7.29,0,0,1-1.17-.11c-.84-.1-1.29-.3-1.34-.58a3,3,0,0,1-.08-.58,6.34,6.34,0,0,1,.68-2.38c.25-.6.46-1.13.64-1.59a6.88,6.88,0,0,0,.26-.74q0-.21-.42-.18a3.82,3.82,0,0,0-1,.21,4.65,4.65,0,0,0-.95.45Q238,38,238,42a28,28,0,0,0,.74,5.81,37.66,37.66,0,0,1,.85,7,10.2,10.2,0,0,1-.59,3.8,8.7,8.7,0,0,1-4.75,4.34,17.15,17.15,0,0,1-5.45.9,17.51,17.51,0,0,1-4.23-.53A.35.35,0,0,0,224.41,63.25Z"/><path class="cls-1" d="M235.11,76.93c2.43.2,4,.71,4.68,1.51a1.75,1.75,0,0,1,0,2.47,7.84,7.84,0,0,1-4,2.12,19.87,19.87,0,0,1-7.44.39q-17.66-1.73-37.31-2.31t-39-.39q-19.35.19-37.35,1T82.36,83.55q-14.34,1-23.83,2T46.46,87.19a12.41,12.41,0,0,1-5.4-.23A20.23,20.23,0,0,1,35.58,85c-1.41-.79-2.07-1.6-2-2.43s1.82-1.43,5.15-1.79q17.15-1.81,36.37-3t38.57-1.79q19.33-.65,38.07-.84t34.81,0q16.08.18,28.65.65T235.11,76.93Z"/><path class="cls-2" d="M65.39,1.19c3,.42,4.87,1,5.71,1.59a.87.87,0,0,1,.48.68q0,.59-1.53,1.11A3.23,3.23,0,0,1,69,4.73l-.53,0a17.37,17.37,0,0,1-1.74-.3A36.9,36.9,0,0,0,60,3.73q-1.7-.06-3.33-.06c-1.83,0-3.65.06-5.44.16l-4,.27L46.52,6c-.21.6-.75,1.86-1.61,3.78S43.07,13.81,42,16.2Q28,46.29,22.1,68.7A49,49,0,0,1,20.59,74a3.14,3.14,0,0,1-1.51,2,7.35,7.35,0,0,1-2.69.37h-.9a6.73,6.73,0,0,1-2.43-.31,3.3,3.3,0,0,1-1.27-.8,2.27,2.27,0,0,1-.21-1.11c0-.17,0-.52.05-1s.21-1.64.53-3.41Q15.22,52,25.43,29.37c.63-1.38,1.07-2.43,1.32-3.17A5,5,0,0,0,27,24.87a3.87,3.87,0,0,0-.13-.87,8.74,8.74,0,0,0-.77-1.77A10,10,0,0,0,24,19.53a11.25,11.25,0,0,0-3-2,62.08,62.08,0,0,0-6.39-2.25Q9.46,13.66,3.7,12,0,10.92,0,9.6c0-.6.56-1.26,1.69-2Q5.55,5,21.25,2.88,33,1.29,45.73.77,50.11.61,53.82.61A93.79,93.79,0,0,1,65.39,1.19ZM37.06,7.11l1.53-2.59-1.16.16L36,4.84l-1.85.21q-4.75.42-10.31,1.32t-9.3,1.75c-2.15.49-3.23.86-3.23,1.11a.14.14,0,0,0,.06.1c.17.07,1,.33,2.32.77s3,1,4.92,1.61q9.67,3.12,11.63,4.86c.24.22.46.38.63.51a1.09,1.09,0,0,0,.32.18,5.66,5.66,0,0,0,.74-1.11c.42-.7.92-1.6,1.48-2.7s1.24-2.23,1.93-3.43S36.6,7.85,37.06,7.11Z"/><path class="cls-2" d="M45,50.46a7.57,7.57,0,0,0-.4,1.48,15.27,15.27,0,0,0-.23,2,10.9,10.9,0,0,0-.06,1.11A6.52,6.52,0,0,0,44.62,57a3.59,3.59,0,0,0,1.16,1.66,1.55,1.55,0,0,0,.53.37h.16a2.52,2.52,0,0,0,.58-.08c.25,0,.69-.16,1.32-.34a14.53,14.53,0,0,0,1.93-.77c.72-.33,1.37-.66,1.93-1s1.14-.73,1.82-1.14l1.83-1.08a7.74,7.74,0,0,1,4-1.27,5.31,5.31,0,0,1,1.64.26c.71.18,1.06.48,1.06.9s-.37,1-1.11,1.64a23.61,23.61,0,0,1-4.71,3.3,24.46,24.46,0,0,1-5.49,2.25A18.77,18.77,0,0,1,41,61.56a7.9,7.9,0,0,1-4.91-4.7,9.48,9.48,0,0,1-.37-2.59,17.56,17.56,0,0,1,.18-2.12,14.4,14.4,0,0,1,.93-3.28,31.6,31.6,0,0,1,6.42-10A22.15,22.15,0,0,1,52,32.7a15.92,15.92,0,0,1,4.75-.64,10.54,10.54,0,0,1,4.18.64,4.49,4.49,0,0,1,2,1.69,5,5,0,0,1,.47,2.38v.32a7.84,7.84,0,0,1-.84,3.64,13.23,13.23,0,0,1-2.73,3.41A19.18,19.18,0,0,1,55.88,47a20.8,20.8,0,0,1-4.28,1.56,20.71,20.71,0,0,1-4.44.72h-.48a5.27,5.27,0,0,0-.74.05.78.78,0,0,0-.5.29A3,3,0,0,0,45,50.46Zm2.8-5.87-.79,1.27h.74a3.33,3.33,0,0,0,.9-.18c.39-.13.77-.28,1.16-.45a14.12,14.12,0,0,0,5.24-4.18,7.11,7.11,0,0,0,1.74-4.23,4.46,4.46,0,0,0,0-.63c0-.36-.11-.57-.21-.64a.21.21,0,0,0-.11,0,1,1,0,0,0-.48.21,18.77,18.77,0,0,0-4.12,3.6A33,33,0,0,0,47.84,44.59Z"/><path class="cls-2" d="M68,59.82a2.52,2.52,0,0,1-1.67-1A4.83,4.83,0,0,1,66,56.54v-.69q0-5.55,4.54-16a56.38,56.38,0,0,1,2.65-5.55,6.41,6.41,0,0,1,2.06-2.44,5.06,5.06,0,0,1,2.53-.58c2,0,3.18.34,3.49,1v.1A6.55,6.55,0,0,1,81,33.7c-.18.74-.43,1.64-.77,2.7s-.69,2.1-1.08,3.12v.1s.1,0,.21-.16a11.74,11.74,0,0,0,.85-1q4.13-5.28,8.82-6.4a9.75,9.75,0,0,1,2.6-.42,8,8,0,0,1,2.53.48,3.17,3.17,0,0,1,2.28,1.5A9.22,9.22,0,0,1,97,37.3v.47c0,.88,0,1.69.11,2.41a5.16,5.16,0,0,0,.26,1.4,1,1,0,0,1,.16.53c0,.67-.86,1.07-2.59,1.21a7,7,0,0,1-.9.06,3.64,3.64,0,0,1-2.53-.74c-.67-.6-1.11-1.82-1.32-3.65-.11-.71-.23-1.29-.35-1.75s-.2-.68-.24-.68-.53.33-1.19,1S87,39,86.2,39.91s-1.48,1.72-2,2.46C83.74,42.94,83,44,82,45.68S79.83,49.1,78.66,51s-2.2,3.58-3.12,5a27.83,27.83,0,0,1-1.74,2.59,4.11,4.11,0,0,1-2.09,1.22,9.49,9.49,0,0,1-1.72.21A7.93,7.93,0,0,1,68,59.82Zm0,0a2.52,2.52,0,0,1-1.67-1A4.83,4.83,0,0,1,66,56.54v-.69q0-5.55,4.54-16a56.38,56.38,0,0,1,2.65-5.55,6.41,6.41,0,0,1,2.06-2.44,5.06,5.06,0,0,1,2.53-.58c2,0,3.18.34,3.49,1v.1A6.55,6.55,0,0,1,81,33.7c-.18.74-.43,1.64-.77,2.7s-.69,2.1-1.08,3.12v.1s.1,0,.21-.16a11.74,11.74,0,0,0,.85-1q4.13-5.28,8.82-6.4a9.75,9.75,0,0,1,2.6-.42,8,8,0,0,1,2.53.48,3.17,3.17,0,0,1,2.28,1.5A9.22,9.22,0,0,1,97,37.3v.47c0,.88,0,1.69.11,2.41a5.16,5.16,0,0,0,.26,1.4,1,1,0,0,1,.16.53c0,.67-.86,1.07-2.59,1.21a7,7,0,0,1-.9.06,3.64,3.64,0,0,1-2.53-.74c-.67-.6-1.11-1.82-1.32-3.65-.11-.71-.23-1.29-.35-1.75s-.2-.68-.24-.68-.53.33-1.19,1S87,39,86.2,39.91s-1.48,1.72-2,2.46C83.74,42.94,83,44,82,45.68S79.83,49.1,78.66,51s-2.2,3.58-3.12,5a27.83,27.83,0,0,1-1.74,2.59,4.11,4.11,0,0,1-2.09,1.22,9.49,9.49,0,0,1-1.72.21A7.93,7.93,0,0,1,68,59.82Z"/><path class="cls-2" d="M99.54,59.82a2.5,2.5,0,0,1-1.66-1,4.81,4.81,0,0,1-.4-2.27v-.69q0-5.55,4.55-16a59.24,59.24,0,0,1,2.64-5.55,6.5,6.5,0,0,1,2.06-2.44,5.1,5.1,0,0,1,2.54-.58c2,0,3.17.34,3.49,1v.1a7.49,7.49,0,0,1-.26,1.27c-.18.74-.44,1.64-.77,2.7s-.7,2.1-1.08,3.12v.1s.1,0,.21-.16a10.34,10.34,0,0,0,.84-1q4.13-5.28,8.83-6.4a9.69,9.69,0,0,1,2.59-.42,8.09,8.09,0,0,1,2.54.48,3.15,3.15,0,0,1,2.27,1.5,9,9,0,0,1,.53,3.68v.47c0,.88,0,1.69.11,2.41a5.16,5.16,0,0,0,.26,1.4,1,1,0,0,1,.16.53c0,.67-.86,1.07-2.59,1.21a7.28,7.28,0,0,1-.9.06,3.67,3.67,0,0,1-2.54-.74c-.67-.6-1.11-1.82-1.32-3.65a15.59,15.59,0,0,0-.34-1.75c-.13-.45-.2-.68-.24-.68s-.54.33-1.19,1S118.5,39,117.7,39.91s-1.47,1.72-2,2.46c-.42.57-1.16,1.67-2.2,3.31s-2.14,3.42-3.3,5.36-2.2,3.58-3.12,5-1.5,2.31-1.74,2.59a4.11,4.11,0,0,1-2.09,1.22,9.59,9.59,0,0,1-1.72.21A8,8,0,0,1,99.54,59.82Zm0,0a2.5,2.5,0,0,1-1.66-1,4.81,4.81,0,0,1-.4-2.27v-.69q0-5.55,4.55-16a59.24,59.24,0,0,1,2.64-5.55,6.5,6.5,0,0,1,2.06-2.44,5.1,5.1,0,0,1,2.54-.58c2,0,3.17.34,3.49,1v.1a7.49,7.49,0,0,1-.26,1.27c-.18.74-.44,1.64-.77,2.7s-.7,2.1-1.08,3.12v.1s.1,0,.21-.16a10.34,10.34,0,0,0,.84-1q4.13-5.28,8.83-6.4a9.69,9.69,0,0,1,2.59-.42,8.09,8.09,0,0,1,2.54.48,3.15,3.15,0,0,1,2.27,1.5,9,9,0,0,1,.53,3.68v.47c0,.88,0,1.69.11,2.41a5.16,5.16,0,0,0,.26,1.4,1,1,0,0,1,.16.53c0,.67-.86,1.07-2.59,1.21a7.28,7.28,0,0,1-.9.06,3.67,3.67,0,0,1-2.54-.74c-.67-.6-1.11-1.82-1.32-3.65a15.59,15.59,0,0,0-.34-1.75c-.13-.45-.2-.68-.24-.68s-.54.33-1.19,1S118.5,39,117.7,39.91s-1.47,1.72-2,2.46c-.42.57-1.16,1.67-2.2,3.31s-2.14,3.42-3.3,5.36-2.2,3.58-3.12,5-1.5,2.31-1.74,2.59a4.11,4.11,0,0,1-2.09,1.22,9.59,9.59,0,0,1-1.72.21A8,8,0,0,1,99.54,59.82Z"/><path class="cls-2" d="M169.43,41.21q-2.06,4.07-4.07,8.75a54.76,54.76,0,0,0-2.64,7.11,11.59,11.59,0,0,0-.42,2.8,3.11,3.11,0,0,0,.58,2.06l.63.79-.63.69a5.37,5.37,0,0,1-2.54,1.17,9.35,9.35,0,0,1-1.64.15,8.37,8.37,0,0,1-1.58-.15,5.13,5.13,0,0,1-3.18-2.12,4.13,4.13,0,0,1-.37-1.45c-.07-.65-.1-1.65-.1-3l.05-3.49-.85.64c-.24.17-.69.52-1.34,1s-1.35,1-2.09,1.61a27.07,27.07,0,0,1-10,5.07,5.66,5.66,0,0,1-1.32.16h-.59a9.82,9.82,0,0,1-4.52-1.13,7.25,7.25,0,0,1-3.3-3.68,9.38,9.38,0,0,1-.53-3.06,15,15,0,0,1,.37-2.83,19.56,19.56,0,0,1,1.43-4.15,27.65,27.65,0,0,1,6-8.83A35.28,35.28,0,0,1,140,36.42a14,14,0,0,1,2.67-1.61,15.67,15.67,0,0,1,4.44-1.64,17.5,17.5,0,0,1,3.17-.26c.6,0,1.24,0,1.91.05,3.8.18,6.66.9,8.56,2.17l1.06.74L163,35a8.3,8.3,0,0,1,1-.5,4.05,4.05,0,0,1,1.14-.24c.46,0,1.11-.05,2-.05q4.39,0,4.71,1.64v.05a7.21,7.21,0,0,1-.58,1.69C170.79,38.53,170.21,39.73,169.43,41.21Zm-13.9,2.59,1.85-1.9-.79-1.38c-1.17-2.18-2.56-3.28-4.18-3.28s-3.63,1.24-5.82,3.7a33.49,33.49,0,0,0-5.26,7.83,17.69,17.69,0,0,0-2,7.45v.11a1.9,1.9,0,0,0,.16,1,.2.2,0,0,0,.16.06,2.34,2.34,0,0,0,.95-.45c.46-.3,1.32-.93,2.59-1.88a2,2,0,0,0,.26-.21c1.55-1.17,3.51-2.83,5.87-5S153.73,45.67,155.53,43.8Z"/><path class="cls-2" d="M174.82,67.69a7.75,7.75,0,0,1-3.67-2.35,7.23,7.23,0,0,1-1-4.2,31.54,31.54,0,0,1,1.69-9.41A225.72,225.72,0,0,1,182,27q6.42-13.6,10.33-18.47L193.64,7h3.71a3.76,3.76,0,0,1,1.69.26.7.7,0,0,1,.26.63,4.31,4.31,0,0,1-.37,1.48c-.42,1.13-1.29,3-2.59,5.66-.18.32-.35.65-.53,1Q179.58,49.67,178.05,61.3a9.21,9.21,0,0,0-.11,1.27c0,.7.18,1,.53,1s1-.44,1.8-1.32c1.13-1.13,2.69-2.91,4.68-5.36s4.13-5.23,6.42-8.33a31.12,31.12,0,0,1,3.68-4.49,3.82,3.82,0,0,1,2.61-1.06,2.66,2.66,0,0,1,1.56.5c.48.34.72.68.72,1a11.57,11.57,0,0,1-1.83,3.25c-1.21,1.82-2.69,3.88-4.41,6.19s-3.39,4.46-5,6.45a36.37,36.37,0,0,1-3.78,4.2A11.93,11.93,0,0,1,181.57,67a10.34,10.34,0,0,1-3.78.74h-1.91A5.48,5.48,0,0,1,174.82,67.69Zm0,0a7.75,7.75,0,0,1-3.67-2.35,7.23,7.23,0,0,1-1-4.2,31.54,31.54,0,0,1,1.69-9.41A225.72,225.72,0,0,1,182,27q6.42-13.6,10.33-18.47L193.64,7h3.71a3.76,3.76,0,0,1,1.69.26.7.7,0,0,1,.26.63,4.31,4.31,0,0,1-.37,1.48c-.42,1.13-1.29,3-2.59,5.66-.18.32-.35.65-.53,1Q179.58,49.67,178.05,61.3a9.21,9.21,0,0,0-.11,1.27c0,.7.18,1,.53,1s1-.44,1.8-1.32c1.13-1.13,2.69-2.91,4.68-5.36s4.13-5.23,6.42-8.33a31.12,31.12,0,0,1,3.68-4.49,3.82,3.82,0,0,1,2.61-1.06,2.66,2.66,0,0,1,1.56.5c.48.34.72.68.72,1a11.57,11.57,0,0,1-1.83,3.25c-1.21,1.82-2.69,3.88-4.41,6.19s-3.39,4.46-5,6.45a36.37,36.37,0,0,1-3.78,4.2A11.93,11.93,0,0,1,181.57,67a10.34,10.34,0,0,1-3.78.74h-1.91A5.48,5.48,0,0,1,174.82,67.69Z"/><path class="cls-2" d="M199.2,50.46a6.37,6.37,0,0,0-.4,1.48,17.21,17.21,0,0,0-.24,2c0,.39-.05.76-.05,1.11a6.88,6.88,0,0,0,.26,1.93,3.69,3.69,0,0,0,1.17,1.66,1.52,1.52,0,0,0,.52.37h.16a2.46,2.46,0,0,0,.58-.08c.25,0,.69-.16,1.33-.34a15.09,15.09,0,0,0,1.93-.77c.72-.33,1.36-.66,1.93-1s1.13-.73,1.82-1.14L210,54.64a7.74,7.74,0,0,1,4-1.27,5.36,5.36,0,0,1,1.64.26q1.05.27,1.05.9c0,.42-.37,1-1.11,1.64a23.53,23.53,0,0,1-4.7,3.3,24.53,24.53,0,0,1-5.5,2.25,18.73,18.73,0,0,1-10.2-.16,7.94,7.94,0,0,1-4.92-4.7,9.48,9.48,0,0,1-.37-2.59,16.06,16.06,0,0,1,.19-2.12,14.84,14.84,0,0,1,.92-3.28,31.6,31.6,0,0,1,6.42-10,22.3,22.3,0,0,1,8.7-6.16,16,16,0,0,1,4.76-.64,10.6,10.6,0,0,1,4.18.64A4.52,4.52,0,0,1,217,34.39a4.86,4.86,0,0,1,.48,2.38v.32a7.84,7.84,0,0,1-.85,3.64,13,13,0,0,1-2.72,3.41A19.24,19.24,0,0,1,210,47a20.8,20.8,0,0,1-4.28,1.56,20.52,20.52,0,0,1-4.44.72h-.48a5.38,5.38,0,0,0-.74.05.8.8,0,0,0-.5.29A3.31,3.31,0,0,0,199.2,50.46Zm2.8-5.87-.8,1.27h.74a3.2,3.2,0,0,0,.9-.18q.58-.2,1.17-.45a14.08,14.08,0,0,0,5.23-4.18A7.11,7.11,0,0,0,211,36.82a3.35,3.35,0,0,0,0-.63c0-.36-.1-.57-.21-.64a.18.18,0,0,0-.11,0,1,1,0,0,0-.47.21,18.54,18.54,0,0,0-4.12,3.6A31.85,31.85,0,0,0,202,44.59Z"/><path class="cls-2" d="M223.14,62A9.91,9.91,0,0,1,220,60.5a7.27,7.27,0,0,1-1.35-1.08A3.72,3.72,0,0,1,217.7,58a9.38,9.38,0,0,1-.21-2c0-.39,0-.79,0-1.22a4.86,4.86,0,0,1,1.32-2.85,3.83,3.83,0,0,1,2.2-1.17c.72-.07,1.2-.1,1.45-.1a3.85,3.85,0,0,1,2.27.63.94.94,0,0,1,.32.27.54.54,0,0,1,.05.21,1,1,0,0,1-.05.26,4.63,4.63,0,0,1-.32.85,4.87,4.87,0,0,0-.47,2.06,4.31,4.31,0,0,0,.05.69,3.53,3.53,0,0,0,1,2.27c.67.6,1.15.9,1.43.9h.48a2.32,2.32,0,0,0,1.53-.85,7.91,7.91,0,0,0,.85-1,4.46,4.46,0,0,0,.58-1.08,8.56,8.56,0,0,0,.21-2.12,47.84,47.84,0,0,0-1.06-8.45,28.63,28.63,0,0,1-.69-5.4v-.26a7.36,7.36,0,0,1,1-3.49q2.37-4.34,9.94-4.39c1,0,1.83,0,2.64-.1a7,7,0,0,0,1.64-.27,4.8,4.8,0,0,1,1.69-.31,5.54,5.54,0,0,1,2.06.42c.71.25,1.06.62,1.06,1.11a2.08,2.08,0,0,1-.53,1.16,13.8,13.8,0,0,0-.76,1.27c-.34.6-.67,1.23-1,1.9s-.7,1.29-1,1.85a9.75,9.75,0,0,1-.77,1.17,3.7,3.7,0,0,1-2.64,1,7.29,7.29,0,0,1-1.17-.11c-.84-.1-1.29-.3-1.34-.58a3,3,0,0,1-.08-.58,6.34,6.34,0,0,1,.68-2.38c.25-.6.46-1.13.64-1.58a7.45,7.45,0,0,0,.26-.75q0-.21-.42-.18a3.82,3.82,0,0,0-1,.21,4.65,4.65,0,0,0-.95.45q-2,1.38-2,5.34a28.16,28.16,0,0,0,.74,5.82,37.47,37.47,0,0,1,.85,7,10.2,10.2,0,0,1-.59,3.8A8.7,8.7,0,0,1,233,61.67a17.15,17.15,0,0,1-5.45.9A17.51,17.51,0,0,1,223.3,62,.35.35,0,0,0,223.14,62Zm0,0A9.91,9.91,0,0,1,220,60.5a7.27,7.27,0,0,1-1.35-1.08A3.72,3.72,0,0,1,217.7,58a9.38,9.38,0,0,1-.21-2c0-.39,0-.79,0-1.22a4.86,4.86,0,0,1,1.32-2.85,3.83,3.83,0,0,1,2.2-1.17c.72-.07,1.2-.1,1.45-.1a3.85,3.85,0,0,1,2.27.63.94.94,0,0,1,.32.27.54.54,0,0,1,.05.21,1,1,0,0,1-.05.26,4.63,4.63,0,0,1-.32.85,4.87,4.87,0,0,0-.47,2.06,4.31,4.31,0,0,0,.05.69,3.53,3.53,0,0,0,1,2.27c.67.6,1.15.9,1.43.9h.48a2.32,2.32,0,0,0,1.53-.85,7.91,7.91,0,0,0,.85-1,4.46,4.46,0,0,0,.58-1.08,8.56,8.56,0,0,0,.21-2.12,47.84,47.84,0,0,0-1.06-8.45,28.63,28.63,0,0,1-.69-5.4v-.26a7.36,7.36,0,0,1,1-3.49q2.37-4.34,9.94-4.39c1,0,1.83,0,2.64-.1a7,7,0,0,0,1.64-.27,4.8,4.8,0,0,1,1.69-.31,5.54,5.54,0,0,1,2.06.42c.71.25,1.06.62,1.06,1.11a2.08,2.08,0,0,1-.53,1.16,13.8,13.8,0,0,0-.76,1.27c-.34.6-.67,1.23-1,1.9s-.7,1.29-1,1.85a9.75,9.75,0,0,1-.77,1.17,3.7,3.7,0,0,1-2.64,1,7.29,7.29,0,0,1-1.17-.11c-.84-.1-1.29-.3-1.34-.58a3,3,0,0,1-.08-.58,6.34,6.34,0,0,1,.68-2.38c.25-.6.46-1.13.64-1.58a7.45,7.45,0,0,0,.26-.75q0-.21-.42-.18a3.82,3.82,0,0,0-1,.21,4.65,4.65,0,0,0-.95.45q-2,1.38-2,5.34a28.16,28.16,0,0,0,.74,5.82,37.47,37.47,0,0,1,.85,7,10.2,10.2,0,0,1-.59,3.8A8.7,8.7,0,0,1,233,61.67a17.15,17.15,0,0,1-5.45.9A17.51,17.51,0,0,1,223.3,62,.35.35,0,0,0,223.14,62Z"/><path class="cls-2" d="M233.84,75.66c2.43.2,4,.71,4.68,1.51a1.75,1.75,0,0,1,0,2.47,7.84,7.84,0,0,1-4,2.12,19.87,19.87,0,0,1-7.44.39q-17.65-1.73-37.31-2.31t-39-.39q-19.35.19-37.35,1T81.09,82.28q-14.34,1-23.83,2T45.19,85.92a12.41,12.41,0,0,1-5.4-.23,20.23,20.23,0,0,1-5.48-1.92c-1.41-.79-2.07-1.6-2-2.43s1.82-1.43,5.15-1.79q17.14-1.81,36.37-3t38.57-1.79q19.34-.65,38.07-.84t34.81,0q16.08.18,28.65.65T233.84,75.66Z"/></svg>